<svg width="420" height="120" viewBox="0 0 420 120" fill="none" xmlns="http://www.w3.org/2000/svg">
  <rect x="8" y="12" width="96" height="96" rx="28" fill="#F3FAEC"/>
  <path d="M25 78C33 65 44 58 58 58C72 58 83 65 91 78" stroke="#75C96A" stroke-width="8" stroke-linecap="round"/>
  <path d="M36 84C43 74 50 70 58 70C66 70 73 74 80 84" stroke="#F2B856" stroke-width="7" stroke-linecap="round"/>
  <rect x="36" y="28" width="44" height="34" rx="12" fill="#FFFFFF"/>
  <path d="M58 28V62" stroke="#7BC86A" stroke-width="4" stroke-linecap="round"/>
  <path d="M45 40H58" stroke="#7BC86A" stroke-width="4" stroke-linecap="round"/>
  <path d="M45 49H58" stroke="#7BC86A" stroke-width="4" stroke-linecap="round"/>
  <path d="M62 40H71" stroke="#F09A64" stroke-width="4" stroke-linecap="round"/>
  <path d="M62 49H71" stroke="#F09A64" stroke-width="4" stroke-linecap="round"/>
  <circle cx="27" cy="30" r="5" fill="#7FCBFF"/>
  <circle cx="89" cy="26" r="5" fill="#FFA6C0"/>
  <text x="130" y="56" fill="#3D4A37" font-size="34" font-weight="700" font-family="'SF Pro Rounded','PingFang SC','Hiragino Sans GB',sans-serif">小页记</text>
  <text x="130" y="84" fill="#79866F" font-size="16" font-weight="600" font-family="'SF Pro Rounded','PingFang SC','Hiragino Sans GB',sans-serif">草地拱门版毕业纪念册</text>
</svg>
