<svg width="420" height="120" viewBox="0 0 420 120" fill="none" xmlns="http://www.w3.org/2000/svg">
  <rect x="8" y="12" width="96" height="96" rx="28" fill="#FFF9EC"/>
  <path d="M28 63C28 46.4315 41.4315 33 58 33C72.0577 33 84.2855 42.6747 87.5161 56.3462" stroke="#7AC86A" stroke-width="8" stroke-linecap="round"/>
  <path d="M32 71C37 63 47 58 59 58C70 58 80 62 87 70" stroke="#7FC6FF" stroke-width="8" stroke-linecap="round"/>
  <path d="M40 80C46 74 53 71 61 71C68.5 71 75.5 73.5 82 79" stroke="#FFA8C2" stroke-width="8" stroke-linecap="round"/>
  <rect x="42" y="54" width="34" height="26" rx="10" fill="#FFFFFF"/>
  <path d="M59 54V80" stroke="#F5B956" stroke-width="3.5" stroke-linecap="round"/>
  <text x="130" y="56" fill="#3D4A37" font-size="34" font-weight="700" font-family="'SF Pro Rounded','PingFang SC','Hiragino Sans GB',sans-serif">小页记</text>
  <text x="130" y="84" fill="#79866F" font-size="16" font-weight="600" font-family="'SF Pro Rounded','PingFang SC','Hiragino Sans GB',sans-serif">彩虹小书版幼儿园纪念册</text>
</svg>
